<svg width="40" height="38" viewBox="0 0 40 38" fill="none" xmlns="http://www.w3.org/2000/svg">
<path d="M38.3333 14.1893C34.6667 14.1893 31.2267 15.281 28.2683 17.1821C27.7583 11.431 25.2683 5.78966 21.1783 1.29493L20 0L18.8217 1.29493C14.7317 5.78966 12.24 11.4328 11.7317 17.1821C8.77333 15.281 5.335 14.1893 1.66667 14.1893H0V16.0209C0 27.5233 8.08167 36.989 18.3333 37.9231L20 38L21.6667 37.9231C31.9183 36.989 40 27.5233 40 16.0209V14.1893H38.3333ZM20 5.27315C23.375 9.55357 25.1383 14.6198 25.0283 19.772C22.89 21.8692 21.1633 24.4645 20 27.3878C18.8367 24.4627 17.11 21.8692 14.9717 19.772C14.8633 14.6198 16.625 9.55357 20 5.27315ZM3.425 17.9532C11.2133 18.8562 17.42 25.6771 18.2417 34.2361C10.4533 33.3331 4.24667 26.5123 3.425 17.9532ZM21.7583 34.2361C22.58 25.6771 28.7867 18.8562 36.575 17.9532C35.7533 26.5123 29.5467 33.3331 21.7583 34.2361Z" fill="black"/>
</svg>
