<svg width="96" height="96" viewBox="0 0 96 96" fill="none" xmlns="http://www.w3.org/2000/svg">
<rect width="96" height="96" rx="30" fill="#96C6FF"/>
<path d="M77.3333 40.4042C71.4667 40.4042 65.9627 42.1278 61.2293 45.1297C60.4133 36.0489 56.4293 27.1416 49.8853 20.0446L48 18L46.1147 20.0446C39.5707 27.1416 35.584 36.0518 34.7707 45.1297C30.0373 42.1278 24.536 40.4042 18.6667 40.4042H16V43.2962C16 61.4579 28.9307 76.4036 45.3333 77.8785L48 78L50.6667 77.8785C67.0693 76.4036 80 61.4579 80 43.2962V40.4042H77.3333ZM48 26.326C53.4 33.0846 56.2213 41.0838 56.0453 49.219C52.624 52.5303 49.8613 56.6282 48 61.2438C46.1387 56.6253 43.376 52.5303 39.9547 49.219C39.7813 41.0838 42.6 33.0846 48 26.326ZM21.48 46.3472C33.9413 47.773 43.872 58.5427 45.1867 72.057C32.7253 70.6312 22.7947 59.8615 21.48 46.3472ZM50.8133 72.057C52.128 58.5427 62.0587 47.773 74.52 46.3472C73.2053 59.8615 63.2747 70.6312 50.8133 72.057Z" fill="#252D37"/>
</svg>
