<svg width="32" height="30" viewBox="0 0 32 30" fill="none" xmlns="http://www.w3.org/2000/svg">
<path d="M30.6667 11.2021C27.7333 11.2021 24.9813 12.0639 22.6147 13.5649C22.2067 9.02444 20.2147 4.57078 16.9427 1.02232L16 0L15.0573 1.02232C11.7853 4.57078 9.792 9.02588 9.38533 13.5649C7.01867 12.0639 4.268 11.2021 1.33333 11.2021H0V12.6481C0 21.7289 6.46533 29.2018 14.6667 29.9393L16 30L17.3333 29.9393C25.5347 29.2018 32 21.7289 32 12.6481V11.2021H30.6667ZM16 4.16301C18.7 7.5423 20.1107 11.5419 20.0227 15.6095C18.312 17.2651 16.9307 19.3141 16 21.6219C15.0693 19.3127 13.688 17.2651 11.9773 15.6095C11.8907 11.5419 13.3 7.5423 16 4.16301ZM2.74 14.1736C8.97067 14.8865 13.936 20.2714 14.5933 27.0285C8.36267 26.3156 3.39733 20.9307 2.74 14.1736ZM17.4067 27.0285C18.064 20.2714 23.0293 14.8865 29.26 14.1736C28.6027 20.9307 23.6373 26.3156 17.4067 27.0285Z" fill="#0075FF"/>
</svg>
