<svg width="24" height="18" viewBox="0 0 24 18" fill="none" xmlns="http://www.w3.org/2000/svg">
<path d="M23.9945 6.34377C24.0484 4.6782 23.7071 3.0251 23.0024 1.53796C22.5242 0.927744 21.8606 0.515948 21.1272 0.374322C18.0937 0.0805334 15.0476 -0.0398807 12.002 0.0135951C8.96757 -0.0423079 5.93246 0.0742206 2.9096 0.362686C2.31196 0.478719 1.75889 0.777919 1.31788 1.22377C0.336678 2.18959 0.227656 3.84195 0.118633 5.23831C-0.0395445 7.74893 -0.0395445 10.268 0.118633 12.7787C0.150174 13.5646 0.25981 14.3447 0.4457 15.1059C0.577153 15.6936 0.84311 16.2374 1.21976 16.6885C1.66377 17.1579 2.22972 17.4742 2.84419 17.5961C5.19461 17.9058 7.5629 18.0341 9.93062 17.9801C13.7464 18.0383 17.0934 17.9801 21.0509 17.6543C21.6804 17.5398 22.2623 17.2232 22.7189 16.7467C23.0241 16.4207 23.2521 16.0218 23.384 15.583C23.7738 14.3061 23.9653 12.9696 23.9509 11.6267C23.9945 10.975 23.9945 7.04195 23.9945 6.34377ZM9.53814 12.3248V5.12195L15.9923 8.74085C14.1825 9.8114 11.7949 11.0216 9.53814 12.3248Z" fill="#0E2E4E"/>
</svg>
